<mxfile host="app.diagrams.net" modified="2024-06-06T17:33:46.573Z" agent="Mozilla/5.0 (Windows NT 10.0; Win64; x64) AppleWebKit/537.36 (KHTML, like Gecko) Chrome/125.0.0.0 Safari/537.36" etag="2VL5WzpFrjqkpvT9GjfA" version="24.5.1" type="github">
  <diagram id="C5RBs43oDa-KdzZeNtuy" name="Page-1">
    <mxGraphModel dx="1877" dy="603" grid="1" gridSize="10" guides="1" tooltips="1" connect="1" arrows="1" fold="1" page="1" pageScale="1" pageWidth="827" pageHeight="1169" math="0" shadow="0">
      <root>
        <mxCell id="WIyWlLk6GJQsqaUBKTNV-0" />
        <mxCell id="WIyWlLk6GJQsqaUBKTNV-1" parent="WIyWlLk6GJQsqaUBKTNV-0" />
        <mxCell id="WIyWlLk6GJQsqaUBKTNV-2" value="" style="rounded=0;html=1;jettySize=auto;orthogonalLoop=1;fontSize=11;endArrow=block;endFill=0;endSize=8;strokeWidth=1;shadow=0;labelBackgroundColor=none;edgeStyle=orthogonalEdgeStyle;entryX=0.5;entryY=0;entryDx=0;entryDy=0;" parent="WIyWlLk6GJQsqaUBKTNV-1" source="WIyWlLk6GJQsqaUBKTNV-3" target="bCq8csOXqtllh5CcsRkI-0" edge="1">
          <mxGeometry relative="1" as="geometry">
            <mxPoint x="120" y="140" as="targetPoint" />
          </mxGeometry>
        </mxCell>
        <mxCell id="WIyWlLk6GJQsqaUBKTNV-3" value="Ask client for name&lt;div&gt;store it in name attribute&lt;/div&gt;" style="rounded=1;whiteSpace=wrap;html=1;fontSize=12;glass=0;strokeWidth=1;shadow=0;" parent="WIyWlLk6GJQsqaUBKTNV-1" vertex="1">
          <mxGeometry x="160" y="80" width="120" height="40" as="geometry" />
        </mxCell>
        <mxCell id="WIyWlLk6GJQsqaUBKTNV-4" value="Yes" style="rounded=0;html=1;jettySize=auto;orthogonalLoop=1;fontSize=11;endArrow=block;endFill=0;endSize=8;strokeWidth=1;shadow=0;labelBackgroundColor=none;edgeStyle=orthogonalEdgeStyle;exitX=0.5;exitY=1;exitDx=0;exitDy=0;" parent="WIyWlLk6GJQsqaUBKTNV-1" source="bCq8csOXqtllh5CcsRkI-0" edge="1">
          <mxGeometry y="20" relative="1" as="geometry">
            <mxPoint as="offset" />
            <mxPoint x="220" y="290" as="targetPoint" />
            <Array as="points" />
          </mxGeometry>
        </mxCell>
        <mxCell id="bCq8csOXqtllh5CcsRkI-3" value="" style="edgeStyle=orthogonalEdgeStyle;rounded=0;orthogonalLoop=1;jettySize=auto;html=1;" edge="1" parent="WIyWlLk6GJQsqaUBKTNV-1" source="WIyWlLk6GJQsqaUBKTNV-6" target="WIyWlLk6GJQsqaUBKTNV-12">
          <mxGeometry relative="1" as="geometry" />
        </mxCell>
        <mxCell id="bCq8csOXqtllh5CcsRkI-7" value="" style="edgeStyle=orthogonalEdgeStyle;rounded=0;orthogonalLoop=1;jettySize=auto;html=1;" edge="1" parent="WIyWlLk6GJQsqaUBKTNV-1" source="WIyWlLk6GJQsqaUBKTNV-6" target="WIyWlLk6GJQsqaUBKTNV-11">
          <mxGeometry relative="1" as="geometry" />
        </mxCell>
        <mxCell id="WIyWlLk6GJQsqaUBKTNV-6" value="If chimney service" style="rhombus;whiteSpace=wrap;html=1;shadow=0;fontFamily=Helvetica;fontSize=12;align=center;strokeWidth=1;spacing=6;spacingTop=-4;" parent="WIyWlLk6GJQsqaUBKTNV-1" vertex="1">
          <mxGeometry x="175" y="290" width="90" height="80" as="geometry" />
        </mxCell>
        <mxCell id="WIyWlLk6GJQsqaUBKTNV-7" value="Plug in lamp" style="rounded=1;whiteSpace=wrap;html=1;fontSize=12;glass=0;strokeWidth=1;shadow=0;" parent="WIyWlLk6GJQsqaUBKTNV-1" vertex="1">
          <mxGeometry x="-10" y="310" width="120" height="40" as="geometry" />
        </mxCell>
        <mxCell id="WIyWlLk6GJQsqaUBKTNV-8" value="" style="rounded=0;html=1;jettySize=auto;orthogonalLoop=1;fontSize=11;endArrow=block;endFill=0;endSize=8;strokeWidth=1;shadow=0;labelBackgroundColor=none;edgeStyle=orthogonalEdgeStyle;" parent="WIyWlLk6GJQsqaUBKTNV-1" target="WIyWlLk6GJQsqaUBKTNV-11" edge="1">
          <mxGeometry x="0.3222" y="20" relative="1" as="geometry">
            <mxPoint as="offset" />
            <mxPoint x="220" y="370" as="sourcePoint" />
          </mxGeometry>
        </mxCell>
        <mxCell id="WIyWlLk6GJQsqaUBKTNV-9" value="Yes" style="edgeStyle=orthogonalEdgeStyle;rounded=0;html=1;jettySize=auto;orthogonalLoop=1;fontSize=11;endArrow=block;endFill=0;endSize=8;strokeWidth=1;shadow=0;labelBackgroundColor=none;exitX=1;exitY=0.5;exitDx=0;exitDy=0;" parent="WIyWlLk6GJQsqaUBKTNV-1" source="WIyWlLk6GJQsqaUBKTNV-6" target="WIyWlLk6GJQsqaUBKTNV-12" edge="1">
          <mxGeometry x="-0.0128" relative="1" as="geometry">
            <mxPoint as="offset" />
            <mxPoint x="280" y="330" as="sourcePoint" />
          </mxGeometry>
        </mxCell>
        <mxCell id="WIyWlLk6GJQsqaUBKTNV-11" value="After client need is satisfied say bye" style="rounded=1;whiteSpace=wrap;html=1;fontSize=12;glass=0;strokeWidth=1;shadow=0;" parent="WIyWlLk6GJQsqaUBKTNV-1" vertex="1">
          <mxGeometry x="160" y="430" width="120" height="40" as="geometry" />
        </mxCell>
        <mxCell id="WIyWlLk6GJQsqaUBKTNV-12" value="Ask for services&amp;nbsp;" style="rounded=1;whiteSpace=wrap;html=1;fontSize=12;glass=0;strokeWidth=1;shadow=0;" parent="WIyWlLk6GJQsqaUBKTNV-1" vertex="1">
          <mxGeometry x="320" y="310" width="120" height="40" as="geometry" />
        </mxCell>
        <mxCell id="bCq8csOXqtllh5CcsRkI-0" value="How the agent can assist the client ?" style="rounded=1;whiteSpace=wrap;html=1;fontSize=12;glass=0;strokeWidth=1;shadow=0;" vertex="1" parent="WIyWlLk6GJQsqaUBKTNV-1">
          <mxGeometry x="160" y="170" width="120" height="40" as="geometry" />
        </mxCell>
        <mxCell id="bCq8csOXqtllh5CcsRkI-5" value="\No" style="edgeStyle=orthogonalEdgeStyle;rounded=0;html=1;jettySize=auto;orthogonalLoop=1;fontSize=11;endArrow=block;endFill=0;endSize=8;strokeWidth=1;shadow=0;labelBackgroundColor=none;exitX=0;exitY=0.5;exitDx=0;exitDy=0;entryX=1;entryY=0.5;entryDx=0;entryDy=0;" edge="1" parent="WIyWlLk6GJQsqaUBKTNV-1" source="WIyWlLk6GJQsqaUBKTNV-6" target="WIyWlLk6GJQsqaUBKTNV-7">
          <mxGeometry x="-0.0128" relative="1" as="geometry">
            <mxPoint as="offset" />
            <mxPoint x="275" y="340" as="sourcePoint" />
            <mxPoint x="330" y="340" as="targetPoint" />
          </mxGeometry>
        </mxCell>
        <mxCell id="bCq8csOXqtllh5CcsRkI-8" value="Yes" style="rounded=0;html=1;jettySize=auto;orthogonalLoop=1;fontSize=11;endArrow=block;endFill=0;endSize=8;strokeWidth=1;shadow=0;labelBackgroundColor=none;edgeStyle=orthogonalEdgeStyle;entryX=0.5;entryY=0;entryDx=0;entryDy=0;exitX=0.5;exitY=1;exitDx=0;exitDy=0;" edge="1" parent="WIyWlLk6GJQsqaUBKTNV-1" source="bCq8csOXqtllh5CcsRkI-10" target="bCq8csOXqtllh5CcsRkI-9">
          <mxGeometry x="0.3333" y="20" relative="1" as="geometry">
            <mxPoint as="offset" />
            <mxPoint x="390" y="460" as="sourcePoint" />
            <mxPoint x="380" y="410" as="targetPoint" />
          </mxGeometry>
        </mxCell>
        <mxCell id="bCq8csOXqtllh5CcsRkI-9" value="Ask for problem&amp;nbsp;" style="rounded=1;whiteSpace=wrap;html=1;fontSize=12;glass=0;strokeWidth=1;shadow=0;" vertex="1" parent="WIyWlLk6GJQsqaUBKTNV-1">
          <mxGeometry x="320" y="490" width="120" height="40" as="geometry" />
        </mxCell>
        <mxCell id="bCq8csOXqtllh5CcsRkI-10" value="Issue in chimney&amp;nbsp;" style="rhombus;whiteSpace=wrap;html=1;shadow=0;fontFamily=Helvetica;fontSize=12;align=center;strokeWidth=1;spacing=6;spacingTop=-4;" vertex="1" parent="WIyWlLk6GJQsqaUBKTNV-1">
          <mxGeometry x="335" y="370" width="90" height="80" as="geometry" />
        </mxCell>
        <mxCell id="bCq8csOXqtllh5CcsRkI-11" value="" style="rounded=0;html=1;jettySize=auto;orthogonalLoop=1;fontSize=11;endArrow=block;endFill=0;endSize=8;strokeWidth=1;shadow=0;labelBackgroundColor=none;edgeStyle=orthogonalEdgeStyle;exitX=0.5;exitY=1;exitDx=0;exitDy=0;" edge="1" parent="WIyWlLk6GJQsqaUBKTNV-1" source="WIyWlLk6GJQsqaUBKTNV-12">
          <mxGeometry x="0.3333" y="20" relative="1" as="geometry">
            <mxPoint as="offset" />
            <mxPoint x="390" y="460" as="sourcePoint" />
            <mxPoint x="380" y="370" as="targetPoint" />
          </mxGeometry>
        </mxCell>
        <mxCell id="bCq8csOXqtllh5CcsRkI-12" value="Greet the client" style="rounded=1;whiteSpace=wrap;html=1;fontSize=12;glass=0;strokeWidth=1;shadow=0;" vertex="1" parent="WIyWlLk6GJQsqaUBKTNV-1">
          <mxGeometry x="160" width="120" height="40" as="geometry" />
        </mxCell>
        <mxCell id="bCq8csOXqtllh5CcsRkI-15" value="" style="rounded=0;html=1;jettySize=auto;orthogonalLoop=1;fontSize=11;endArrow=block;endFill=0;endSize=8;strokeWidth=1;shadow=0;labelBackgroundColor=none;edgeStyle=orthogonalEdgeStyle;entryX=0.5;entryY=0;entryDx=0;entryDy=0;exitX=0.5;exitY=1;exitDx=0;exitDy=0;" edge="1" parent="WIyWlLk6GJQsqaUBKTNV-1" source="bCq8csOXqtllh5CcsRkI-12" target="WIyWlLk6GJQsqaUBKTNV-3">
          <mxGeometry relative="1" as="geometry">
            <mxPoint x="230" y="130" as="sourcePoint" />
            <mxPoint x="230" y="180" as="targetPoint" />
          </mxGeometry>
        </mxCell>
        <mxCell id="bCq8csOXqtllh5CcsRkI-16" value="Yes" style="rounded=0;html=1;jettySize=auto;orthogonalLoop=1;fontSize=11;endArrow=block;endFill=0;endSize=8;strokeWidth=1;shadow=0;labelBackgroundColor=none;edgeStyle=orthogonalEdgeStyle;entryX=0.5;entryY=0;entryDx=0;entryDy=0;exitX=0.5;exitY=1;exitDx=0;exitDy=0;" edge="1" source="bCq8csOXqtllh5CcsRkI-18" target="bCq8csOXqtllh5CcsRkI-17" parent="WIyWlLk6GJQsqaUBKTNV-1">
          <mxGeometry x="0.3333" y="20" relative="1" as="geometry">
            <mxPoint as="offset" />
            <mxPoint x="540" y="460" as="sourcePoint" />
            <mxPoint x="530" y="410" as="targetPoint" />
          </mxGeometry>
        </mxCell>
        <mxCell id="bCq8csOXqtllh5CcsRkI-17" value="Ask for specific service&amp;nbsp;" style="rounded=1;whiteSpace=wrap;html=1;fontSize=12;glass=0;strokeWidth=1;shadow=0;" vertex="1" parent="WIyWlLk6GJQsqaUBKTNV-1">
          <mxGeometry x="470" y="510" width="120" height="40" as="geometry" />
        </mxCell>
        <mxCell id="bCq8csOXqtllh5CcsRkI-18" value="Service&amp;nbsp;&lt;div&gt;booking&lt;/div&gt;" style="rhombus;whiteSpace=wrap;html=1;shadow=0;fontFamily=Helvetica;fontSize=12;align=center;strokeWidth=1;spacing=6;spacingTop=-4;" vertex="1" parent="WIyWlLk6GJQsqaUBKTNV-1">
          <mxGeometry x="485" y="390" width="90" height="80" as="geometry" />
        </mxCell>
        <mxCell id="bCq8csOXqtllh5CcsRkI-19" value="" style="rounded=0;html=1;jettySize=auto;orthogonalLoop=1;fontSize=11;endArrow=block;endFill=0;endSize=8;strokeWidth=1;shadow=0;labelBackgroundColor=none;edgeStyle=orthogonalEdgeStyle;exitX=0.75;exitY=1;exitDx=0;exitDy=0;entryX=0.5;entryY=0;entryDx=0;entryDy=0;" edge="1" parent="WIyWlLk6GJQsqaUBKTNV-1" source="WIyWlLk6GJQsqaUBKTNV-12" target="bCq8csOXqtllh5CcsRkI-18">
          <mxGeometry x="0.3333" y="20" relative="1" as="geometry">
            <mxPoint as="offset" />
            <mxPoint x="390" y="360" as="sourcePoint" />
            <mxPoint x="390" y="380" as="targetPoint" />
            <Array as="points">
              <mxPoint x="410" y="360" />
              <mxPoint x="530" y="360" />
            </Array>
          </mxGeometry>
        </mxCell>
        <mxCell id="bCq8csOXqtllh5CcsRkI-20" value="Yes" style="rounded=0;html=1;jettySize=auto;orthogonalLoop=1;fontSize=11;endArrow=block;endFill=0;endSize=8;strokeWidth=1;shadow=0;labelBackgroundColor=none;edgeStyle=orthogonalEdgeStyle;entryX=0.5;entryY=0;entryDx=0;entryDy=0;exitX=0.5;exitY=1;exitDx=0;exitDy=0;" edge="1" source="bCq8csOXqtllh5CcsRkI-22" target="bCq8csOXqtllh5CcsRkI-21" parent="WIyWlLk6GJQsqaUBKTNV-1">
          <mxGeometry x="0.3333" y="20" relative="1" as="geometry">
            <mxPoint as="offset" />
            <mxPoint x="390" y="670" as="sourcePoint" />
            <mxPoint x="380" y="620" as="targetPoint" />
          </mxGeometry>
        </mxCell>
        <mxCell id="bCq8csOXqtllh5CcsRkI-21" value="Suggest service&amp;nbsp;&amp;nbsp;" style="rounded=1;whiteSpace=wrap;html=1;fontSize=12;glass=0;strokeWidth=1;shadow=0;" vertex="1" parent="WIyWlLk6GJQsqaUBKTNV-1">
          <mxGeometry x="325" y="700" width="120" height="40" as="geometry" />
        </mxCell>
        <mxCell id="bCq8csOXqtllh5CcsRkI-22" value="Can be&amp;nbsp;&lt;div&gt;solved by predefined services&lt;/div&gt;" style="rhombus;whiteSpace=wrap;html=1;shadow=0;fontFamily=Helvetica;fontSize=12;align=center;strokeWidth=1;spacing=6;spacingTop=-4;" vertex="1" parent="WIyWlLk6GJQsqaUBKTNV-1">
          <mxGeometry x="330" y="560" width="110" height="100" as="geometry" />
        </mxCell>
        <mxCell id="bCq8csOXqtllh5CcsRkI-23" value="" style="rounded=0;html=1;jettySize=auto;orthogonalLoop=1;fontSize=11;endArrow=block;endFill=0;endSize=8;strokeWidth=1;shadow=0;labelBackgroundColor=none;edgeStyle=orthogonalEdgeStyle;entryX=0.5;entryY=0;entryDx=0;entryDy=0;exitX=0.5;exitY=1;exitDx=0;exitDy=0;" edge="1" parent="WIyWlLk6GJQsqaUBKTNV-1" source="bCq8csOXqtllh5CcsRkI-9" target="bCq8csOXqtllh5CcsRkI-22">
          <mxGeometry x="0.3333" y="20" relative="1" as="geometry">
            <mxPoint as="offset" />
            <mxPoint x="390" y="460" as="sourcePoint" />
            <mxPoint x="390" y="500" as="targetPoint" />
          </mxGeometry>
        </mxCell>
        <mxCell id="bCq8csOXqtllh5CcsRkI-27" value="Yes" style="rounded=0;html=1;jettySize=auto;orthogonalLoop=1;fontSize=11;endArrow=block;endFill=0;endSize=8;strokeWidth=1;shadow=0;labelBackgroundColor=none;edgeStyle=orthogonalEdgeStyle;entryX=0.5;entryY=0;entryDx=0;entryDy=0;exitX=0.5;exitY=1;exitDx=0;exitDy=0;" edge="1" source="bCq8csOXqtllh5CcsRkI-29" target="bCq8csOXqtllh5CcsRkI-28" parent="WIyWlLk6GJQsqaUBKTNV-1">
          <mxGeometry x="0.3333" y="20" relative="1" as="geometry">
            <mxPoint as="offset" />
            <mxPoint x="390" y="870" as="sourcePoint" />
            <mxPoint x="380" y="820" as="targetPoint" />
          </mxGeometry>
        </mxCell>
        <mxCell id="bCq8csOXqtllh5CcsRkI-28" value="Process booking&amp;nbsp;" style="rounded=1;whiteSpace=wrap;html=1;fontSize=12;glass=0;strokeWidth=1;shadow=0;" vertex="1" parent="WIyWlLk6GJQsqaUBKTNV-1">
          <mxGeometry x="445" y="990" width="120" height="40" as="geometry" />
        </mxCell>
        <mxCell id="bCq8csOXqtllh5CcsRkI-29" value="If agrees with&amp;nbsp;&lt;div&gt;it&lt;/div&gt;" style="rhombus;whiteSpace=wrap;html=1;shadow=0;fontFamily=Helvetica;fontSize=12;align=center;strokeWidth=1;spacing=6;spacingTop=-4;" vertex="1" parent="WIyWlLk6GJQsqaUBKTNV-1">
          <mxGeometry x="330" y="770" width="110" height="100" as="geometry" />
        </mxCell>
        <mxCell id="bCq8csOXqtllh5CcsRkI-30" value="" style="endArrow=classic;html=1;rounded=0;entryX=0.5;entryY=0;entryDx=0;entryDy=0;exitX=0.5;exitY=1;exitDx=0;exitDy=0;" edge="1" parent="WIyWlLk6GJQsqaUBKTNV-1" source="bCq8csOXqtllh5CcsRkI-21" target="bCq8csOXqtllh5CcsRkI-29">
          <mxGeometry width="50" height="50" relative="1" as="geometry">
            <mxPoint x="290" y="710" as="sourcePoint" />
            <mxPoint x="340" y="660" as="targetPoint" />
          </mxGeometry>
        </mxCell>
        <mxCell id="bCq8csOXqtllh5CcsRkI-32" value="Tell the weekend time&lt;div&gt;and their call will be sent to manager&lt;/div&gt;" style="rounded=1;whiteSpace=wrap;html=1;fontSize=12;glass=0;strokeWidth=1;shadow=0;" vertex="1" parent="WIyWlLk6GJQsqaUBKTNV-1">
          <mxGeometry x="300" y="1000" width="120" height="40" as="geometry" />
        </mxCell>
        <mxCell id="bCq8csOXqtllh5CcsRkI-33" value="" style="endArrow=classic;html=1;rounded=0;entryX=0.412;entryY=-0.025;entryDx=0;entryDy=0;entryPerimeter=0;exitX=0;exitY=0.5;exitDx=0;exitDy=0;" edge="1" parent="WIyWlLk6GJQsqaUBKTNV-1" source="bCq8csOXqtllh5CcsRkI-29" target="bCq8csOXqtllh5CcsRkI-32">
          <mxGeometry width="50" height="50" relative="1" as="geometry">
            <mxPoint x="290" y="810" as="sourcePoint" />
            <mxPoint x="340" y="760" as="targetPoint" />
            <Array as="points">
              <mxPoint x="300" y="820" />
              <mxPoint x="300" y="870" />
              <mxPoint x="300" y="900" />
              <mxPoint x="300" y="920" />
              <mxPoint x="350" y="920" />
            </Array>
          </mxGeometry>
        </mxCell>
        <mxCell id="bCq8csOXqtllh5CcsRkI-34" value="No" style="text;html=1;align=center;verticalAlign=middle;resizable=0;points=[];autosize=1;strokeColor=none;fillColor=none;" vertex="1" parent="WIyWlLk6GJQsqaUBKTNV-1">
          <mxGeometry x="300" y="858" width="40" height="30" as="geometry" />
        </mxCell>
      </root>
    </mxGraphModel>
  </diagram>
</mxfile>
